
		<svg xmlns="http://www.w3.org/2000/svg" xmlns:xlink="http://www.w3.org/1999/xlink" version="1.1" width="3132.7433628318586" height="1035.3982300884957">
			<rect fill="#fac8c8" width="3132.7433628318586" height="1035.3982300884957"/>
			<g transform="scale(6.6371681415929205) translate(10, 10)">
				<defs id="SvgjsDefs2602"/><g id="main_text" rel="mainfill" name="main_text" feature="main_text" xmlns:name="mainText_mainfill" groupName="main_text" fill="#d04442" transform="translate(144.8117289746645, -21.25698444674856) scale(5.625698981183319)"><path d="M11.4 13.72 c1.96 0 3.1 1.2402 3.1 3.5402 l0 6.24 c0 0.32 -0.18 0.5 -0.5 0.5 l-2 0 c-0.32 0 -0.5 -0.18 -0.5 -0.5 l0 -5.98 c0 -0.8 -0.48 -1.04 -1.04 -1.04 c-0.6 0 -1.16 0.3 -1.16 1.28 l0 5.74 c0 0.32 -0.18 0.5 -0.5 0.5 l-2 0 c-0.32 0 -0.5 -0.18 -0.5 -0.5 l0 -5.98 c0 -0.8 -0.48 -1.04 -1.04 -1.04 c-0.6 0 -1.16 0.3 -1.16 1.28 l0 5.74 c0 0.32 -0.18 0.5 -0.5 0.5 l-2 0 c-0.32 0 -0.5 -0.18 -0.5 -0.5 l0 -9 c0 -0.32 0.18 -0.5 0.5 -0.5 l2 0 c0.32 0 0.5 0.18 0.5 0.5 l0 0.40801 c0.4584 -0.6922 1.2552 -1.188 2.3 -1.188 c1.0098 0 1.8154 0.4082 2.3188 1.1904 c0.6482 -0.6936 1.4812 -1.1906 2.6812 -1.1906 z M21.3 13.72 c2.92 0 5.04 2.26 5.04 5.28 c0 0.26 -0.02 0.5 -0.04 0.74 c-0.04 0.32 -0.24 0.46 -0.54 0.46 l-2.44 0 l-4.2388 0 c0.3634 1.1882 1.2966 1.66 2.3388 1.66 c0.56 0 1.12 -0.2 1.48 -0.5 c0.2 -0.16 0.36 -0.26 0.62 -0.26 l1.92 -0.02 c0.36 0 0.56 0.24 0.4 0.56 c-0.78 1.74 -2.42 2.64 -4.46 2.64 c-3.32 0 -5.44 -2.3 -5.44 -5.28 s2.2 -5.28 5.36 -5.28 z M19.0686 17.92 l4.285 0 c-0.3092 -1.138 -1.1914 -1.54 -2.0736 -1.54 c-1.1244 0 -1.9024 0.5426 -2.2114 1.54 z M37.76 10 c0.32 0 0.5 0.18 0.5 0.5 l0 13 c0 0.32 -0.18 0.5 -0.5 0.5 l-2 0 c-0.32 0 -0.5 -0.18 -0.5 -0.5 l0 -0.434 c-0.6686 0.7624 -1.6416 1.214 -2.9798 1.214 c-2.62 0 -4.78 -2.3 -4.78 -5.28 s2.16 -5.28 4.78 -5.28 c1.3382 0 2.3112 0.4516 2.9798 1.214 l0 -4.434 c0 -0.32 0.18 -0.5 0.5 -0.5 l2 0 z M32.879999999999995 21.44 c1.38 0 2.38 -0.94 2.38 -2.44 s-1 -2.44 -2.38 -2.44 s-2.38 0.94 -2.38 2.44 s1 2.44 2.38 2.44 z M40.96 12.8 c-0.32 0 -0.5 -0.18 -0.5 -0.5 l0 -1.8 c0 -0.32 0.18 -0.5 0.5 -0.5 l2 0 c0.32 0 0.5 0.18 0.5 0.5 l0 1.8 c0 0.32 -0.18 0.5 -0.5 0.5 l-2 0 z M40.96 24 c-0.32 0 -0.5 -0.18 -0.5 -0.5 l0 -9 c0 -0.32 0.18 -0.5 0.5 -0.5 l2 0 c0.32 0 0.5 0.18 0.5 0.5 l0 9 c0 0.32 -0.18 0.5 -0.5 0.5 l-2 0 z M54.620000000000005 23.4 c0.24 0.34 0.1 0.6 -0.3 0.6 l-2.28 0 c-0.26 0 -0.46 -0.1 -0.6 -0.32 l-2.78 -4.0658 l0 3.8858 c0 0.32 -0.18 0.5 -0.5 0.5 l-2 0 c-0.32 0 -0.5 -0.18 -0.5 -0.5 l0 -13 c0 -0.32 0.18 -0.5 0.5 -0.5 l2 0 c0.32 0 0.5 0.18 0.5 0.5 l0 7.8448 l2.58 -4.0248 c0.14 -0.22 0.34 -0.32 0.6 -0.32 l2.3 0 c0.4 0 0.54 0.26 0.32 0.6 l-2.94 4.4 z"/></g><g id="SvgjsG2604" rel="mainfill" name="symbol" feature="symbol" xmlns:name="symbol_mainfill" fill="#d04442" transform="translate(14.051496182468389, 14.051496182468389) scale(1.2904811499779434)"><g xmlns="http://www.w3.org/2000/svg"><path d="M87.422,23.76H71.24V7.577c0-3.773-3.068-6.842-6.842-6.842H30.602c-3.773,0-6.842,3.069-6.842,6.842V23.76H7.577   c-3.773,0-6.842,3.069-6.842,6.842v33.796c0,3.773,3.069,6.842,6.842,6.842H23.76v16.182c0,3.773,3.069,6.844,6.842,6.844h33.796   c3.773,0,6.842-3.07,6.842-6.844V71.24h16.182c3.773,0,6.844-3.068,6.844-6.842V30.602C94.266,26.829,91.195,23.76,87.422,23.76z    M26.623,7.577c0-2.194,1.785-3.979,3.979-3.979h33.796c2.193,0,3.979,1.785,3.979,3.979V23.76H26.623V7.577z M68.377,26.623   v41.754H26.623V26.623H68.377z M7.577,68.377c-2.194,0-3.979-1.785-3.979-3.979V30.602c0-2.194,1.785-3.979,3.979-3.979H23.76   v41.754H7.577z M68.377,87.422c0,2.195-1.785,3.98-3.979,3.98H30.602c-2.194,0-3.979-1.785-3.979-3.98V71.24h41.754V87.422z    M91.402,64.398c0,2.193-1.785,3.979-3.98,3.979H71.24V26.623h16.182c2.195,0,3.98,1.785,3.98,3.979V64.398z"/><path d="M35.481,49.494l11.001,11.014c0.268,0.27,0.632,0.42,1.012,0.42h0c0.379,0,0.743-0.15,1.013-0.418l11.016-11.016   c0.033-0.033,0.064-0.068,0.094-0.104c1.369-1.484,2.121-3.403,2.121-5.414c0-4.409-3.588-7.996-7.996-7.996   c-2.486,0-4.758,1.138-6.242,2.997c-1.484-1.859-3.756-2.997-6.244-2.997c-4.409,0-7.995,3.587-7.995,7.996   C33.261,46.022,34.04,47.972,35.481,49.494z M41.256,38.844c2.232,0,4.194,1.427,4.882,3.552c0.191,0.59,0.741,0.991,1.362,0.991   c0.621,0,1.17-0.4,1.361-0.991c0.688-2.125,2.65-3.552,4.881-3.552c2.83,0,5.133,2.303,5.133,5.133c0,1.311-0.5,2.562-1.408,3.522   c-0.012,0.012-0.021,0.024-0.033,0.036l-9.938,9.937l-9.962-9.973c-0.909-0.96-1.409-2.211-1.409-3.521   C36.125,41.146,38.427,38.844,41.256,38.844z"/></g></g>
			</g>
		</svg>
	